<?xml version="1.0" encoding="utf-8" standalone="no"?>
<!DOCTYPE svg PUBLIC "-//W3C//DTD SVG 1.1//EN"
  "http://www.w3.org/Graphics/SVG/1.1/DTD/svg11.dtd">
<!-- Created with matplotlib (https://matplotlib.org/) -->
<svg height="720pt" version="1.1" viewBox="0 0 720 720" width="720pt" xmlns="http://www.w3.org/2000/svg" xmlns:xlink="http://www.w3.org/1999/xlink">
 <defs>
  <style type="text/css">
*{stroke-linecap:butt;stroke-linejoin:round;}
  </style>
 </defs>
 <g id="figure_1">
  <g id="patch_1">
   <path d="M 0 720 
L 720 720 
L 720 0 
L 0 0 
z
" style="fill:#ffffff;"/>
  </g>
  <g id="axes_1">
   <g id="patch_2">
    <path clip-path="url(#pf119de82f2)" d="M 115.363636 611.836364 
L 335.916996 611.836364 
L 335.916996 457.449012 
L 269.750988 391.283004 
L 115.363636 391.283004 
z
" style="stroke:#000000;stroke-linejoin:miter;stroke-width:0.5;"/>
   </g>
   <g id="patch_3">
    <path clip-path="url(#pf119de82f2)" d="M 402.083004 611.836364 
L 622.636364 611.836364 
L 622.636364 391.283004 
L 468.249012 391.283004 
L 402.083004 457.449012 
z
" style="stroke:#000000;stroke-linejoin:miter;stroke-width:0.5;"/>
   </g>
   <g id="patch_4">
    <path clip-path="url(#pf119de82f2)" d="M 402.083004 258.950988 
L 468.249012 325.116996 
L 622.636364 325.116996 
L 622.636364 104.563636 
L 402.083004 104.563636 
z
" style="stroke:#000000;stroke-linejoin:miter;stroke-width:0.5;"/>
   </g>
   <g id="patch_5">
    <path clip-path="url(#pf119de82f2)" d="M 115.363636 325.116996 
L 269.750988 325.116996 
L 335.916996 258.950988 
L 335.916996 104.563636 
L 115.363636 104.563636 
z
" style="stroke:#000000;stroke-linejoin:miter;stroke-width:0.5;"/>
   </g>
   <g id="line2d_1">
    <path clip-path="url(#pf119de82f2)" d="M 391.055336 358.2 
L 391.011815 356.815134 
L 390.881423 355.435733 
L 390.664675 354.067242 
L 390.362427 352.715061 
L 389.975871 351.384526 
L 389.506533 350.080889 
L 388.956265 348.809295 
L 388.327238 347.574761 
L 387.621936 346.38216 
L 386.843142 345.236199 
L 385.993928 344.1414 
L 385.077648 343.102084 
L 384.097916 342.122352 
L 383.0586 341.206072 
L 381.963801 340.356858 
L 380.81784 339.578064 
L 379.625239 338.872762 
L 378.390705 338.243735 
L 377.119111 337.693467 
L 375.815474 337.224129 
L 374.484939 336.837573 
L 373.132758 336.535325 
L 371.764267 336.318577 
L 370.384866 336.188185 
L 369 336.144664 
L 367.615134 336.188185 
L 366.235733 336.318577 
L 364.867242 336.535325 
L 363.515061 336.837573 
L 362.184526 337.224129 
L 360.880889 337.693467 
L 359.609295 338.243735 
L 358.374761 338.872762 
L 357.18216 339.578064 
L 356.036199 340.356858 
L 354.9414 341.206072 
L 353.902084 342.122352 
L 352.922352 343.102084 
L 352.006072 344.1414 
L 351.156858 345.236199 
L 350.378064 346.38216 
L 349.672762 347.574761 
L 349.043735 348.809295 
L 348.493467 350.080889 
L 348.024129 351.384526 
L 347.637573 352.715061 
L 347.335325 354.067242 
L 347.118577 355.435733 
L 346.988185 356.815134 
L 346.944664 358.2 
L 346.988185 359.584866 
L 347.118577 360.964267 
L 347.335325 362.332758 
L 347.637573 363.684939 
L 348.024129 365.015474 
L 348.493467 366.319111 
L 349.043735 367.590705 
L 349.672762 368.825239 
L 350.378064 370.01784 
L 351.156858 371.163801 
L 352.006072 372.2586 
L 352.922352 373.297916 
L 353.902084 374.277648 
L 354.9414 375.193928 
L 356.036199 376.043142 
L 357.18216 376.821936 
L 358.374761 377.527238 
L 359.609295 378.156265 
L 360.880889 378.706533 
L 362.184526 379.175871 
L 363.515061 379.562427 
L 364.867242 379.864675 
L 366.235733 380.081423 
L 367.615134 380.211815 
L 369 380.255336 
L 370.384866 380.211815 
L 371.764267 380.081423 
L 373.132758 379.864675 
L 374.484939 379.562427 
L 375.815474 379.175871 
L 377.119111 378.706533 
L 378.390705 378.156265 
L 379.625239 377.527238 
L 380.81784 376.821936 
L 381.963801 376.043142 
L 383.0586 375.193928 
L 384.097916 374.277648 
L 385.077648 373.297916 
L 385.993928 372.2586 
L 386.843142 371.163801 
L 387.621936 370.01784 
L 388.327238 368.825239 
L 388.956265 367.590705 
L 389.506533 366.319111 
L 389.975871 365.015474 
L 390.362427 363.684939 
L 390.664675 362.332758 
L 390.881423 360.964267 
L 391.011815 359.584866 
L 391.055336 358.2 
" style="fill:none;stroke:#000000;stroke-linecap:square;stroke-width:2;"/>
   </g>
   <g id="line2d_2">
    <path clip-path="url(#pf119de82f2)" d="M 115.363636 611.836364 
L 335.916996 611.836364 
L 335.916996 457.449012 
L 269.750988 391.283004 
L 115.363636 391.283004 
L 115.363636 611.836364 
" style="fill:none;stroke:#000000;stroke-linecap:square;stroke-width:2;"/>
   </g>
   <g id="line2d_3">
    <path clip-path="url(#pf119de82f2)" d="M 402.083004 611.836364 
L 622.636364 611.836364 
L 622.636364 391.283004 
L 468.249012 391.283004 
L 402.083004 457.449012 
L 402.083004 611.836364 
" style="fill:none;stroke:#000000;stroke-linecap:square;stroke-width:2;"/>
   </g>
   <g id="line2d_4">
    <path clip-path="url(#pf119de82f2)" d="M 402.083004 258.950988 
L 468.249012 325.116996 
L 622.636364 325.116996 
L 622.636364 104.563636 
L 402.083004 104.563636 
L 402.083004 258.950988 
" style="fill:none;stroke:#000000;stroke-linecap:square;stroke-width:2;"/>
   </g>
   <g id="line2d_5">
    <path clip-path="url(#pf119de82f2)" d="M 115.363636 325.116996 
L 269.750988 325.116996 
L 335.916996 258.950988 
L 335.916996 104.563636 
L 115.363636 104.563636 
L 115.363636 325.116996 
" style="fill:none;stroke:#000000;stroke-linecap:square;stroke-width:2;"/>
   </g>
   <g id="line2d_6">
    <path clip-path="url(#pf119de82f2)" d="M 236.667984 358.2 
L 369 490.532016 
L 501.332016 358.2 
L 369 225.867984 
L 236.667984 358.2 
" style="fill:none;stroke:#ff0000;stroke-linecap:square;stroke-width:3;"/>
   </g>
  </g>
 </g>
 <defs>
  <clipPath id="pf119de82f2">
   <rect height="543.6" width="558" x="90" y="86.4"/>
  </clipPath>
 </defs>
</svg>
