<?xml version="1.0" encoding="utf-8" standalone="no"?>
<!DOCTYPE svg PUBLIC "-//W3C//DTD SVG 1.1//EN"
  "http://www.w3.org/Graphics/SVG/1.1/DTD/svg11.dtd">
<!-- Created with matplotlib (https://matplotlib.org/) -->
<svg height="720pt" version="1.1" viewBox="0 0 720 720" width="720pt" xmlns="http://www.w3.org/2000/svg" xmlns:xlink="http://www.w3.org/1999/xlink">
 <defs>
  <style type="text/css">
*{stroke-linecap:butt;stroke-linejoin:round;}
  </style>
 </defs>
 <g id="figure_1">
  <g id="patch_1">
   <path d="M 0 720 
L 720 720 
L 720 0 
L 0 0 
z
" style="fill:#ffffff;"/>
  </g>
  <g id="axes_1">
   <g id="patch_2">
    <path clip-path="url(#p1e4bd30780)" d="M 369 418.080237 
L 590.778656 358.2 
L 369 298.319763 
L 147.221344 358.2 
z
" style="fill:none;opacity:0;"/>
   </g>
   <g id="patch_3">
    <path clip-path="url(#p1e4bd30780)" d="M 118.49206 358.2 
L 369 412.990519 
L 619.50794 358.2 
L 369 303.409481 
z
" style="fill:none;opacity:0;"/>
   </g>
   <g id="patch_4">
    <path clip-path="url(#p1e4bd30780)" d="M 115.363636 369.125012 
L 369 405.527427 
L 622.636364 369.125012 
L 622.636364 347.274989 
L 369 310.872572 
L 115.363636 347.274989 
z
" style="fill:none;opacity:0;"/>
   </g>
   <g id="patch_5">
    <path clip-path="url(#p1e4bd30780)" d="M 115.363636 381.741524 
L 368.999999 397.416813 
L 622.636364 381.741524 
L 622.636364 334.658476 
L 368.999999 318.983187 
L 115.363636 334.658476 
z
" style="fill:none;opacity:0;"/>
   </g>
   <g id="patch_6">
    <path clip-path="url(#p1e4bd30780)" d="M 115.363636 381.979333 
L 369 397.263936 
L 622.636364 381.979333 
L 622.636364 334.420667 
L 369 319.136064 
L 115.363636 334.420668 
z
" style="fill:none;opacity:0;"/>
   </g>
   <g id="patch_7">
    <path clip-path="url(#p1e4bd30780)" d="M 115.363636 611.836364 
L 335.916996 611.836364 
L 335.916996 457.449012 
L 269.750988 391.283004 
L 115.363636 391.283004 
z
" style="stroke:#000000;stroke-linejoin:miter;stroke-width:0.5;"/>
   </g>
   <g id="patch_8">
    <path clip-path="url(#p1e4bd30780)" d="M 402.083004 611.836364 
L 622.636364 611.836364 
L 622.636364 391.283004 
L 468.249012 391.283004 
L 402.083004 457.449012 
z
" style="stroke:#000000;stroke-linejoin:miter;stroke-width:0.5;"/>
   </g>
   <g id="patch_9">
    <path clip-path="url(#p1e4bd30780)" d="M 402.083004 258.950988 
L 468.249012 325.116996 
L 622.636364 325.116996 
L 622.636364 104.563636 
L 402.083004 104.563636 
z
" style="stroke:#000000;stroke-linejoin:miter;stroke-width:0.5;"/>
   </g>
   <g id="patch_10">
    <path clip-path="url(#p1e4bd30780)" d="M 115.363636 325.116996 
L 269.750988 325.116996 
L 335.916996 258.950988 
L 335.916996 104.563636 
L 115.363636 104.563636 
z
" style="stroke:#000000;stroke-linejoin:miter;stroke-width:0.5;"/>
   </g>
   <g id="line2d_1">
    <path clip-path="url(#p1e4bd30780)" d="M 405.758893 358.2 
L 405.686358 357.507567 
L 405.469038 356.817867 
L 405.107792 356.133621 
L 404.604045 355.45753 
L 403.959785 354.792263 
L 403.177555 354.140445 
L 402.260441 353.504647 
L 401.212064 352.88738 
L 400.03656 352.29108 
L 398.738569 351.718099 
L 397.323214 351.1707 
L 395.79608 350.651042 
L 394.163194 350.161176 
L 392.431 349.703036 
L 390.606335 349.278429 
L 388.6964 348.889032 
L 386.708732 348.536381 
L 384.651176 348.221868 
L 382.531851 347.946734 
L 380.359123 347.712065 
L 378.141565 347.518786 
L 375.88793 347.367662 
L 373.607111 347.259288 
L 371.30811 347.194093 
L 369 347.172332 
L 366.69189 347.194093 
L 364.392889 347.259288 
L 362.11207 347.367662 
L 359.858435 347.518786 
L 357.640877 347.712065 
L 355.468149 347.946734 
L 353.348824 348.221868 
L 351.291268 348.536381 
L 349.3036 348.889032 
L 347.393665 349.278429 
L 345.569 349.703036 
L 343.836806 350.161176 
L 342.20392 350.651042 
L 340.676786 351.1707 
L 339.261431 351.718099 
L 337.96344 352.29108 
L 336.787936 352.88738 
L 335.739559 353.504647 
L 334.822445 354.140445 
L 334.040215 354.792263 
L 333.395955 355.45753 
L 332.892208 356.133621 
L 332.530962 356.817867 
L 332.313642 357.507567 
L 332.241107 358.2 
L 332.313642 358.892433 
L 332.530962 359.582133 
L 332.892208 360.266379 
L 333.395955 360.94247 
L 334.040215 361.607737 
L 334.822445 362.259555 
L 335.739559 362.895353 
L 336.787936 363.51262 
L 337.96344 364.10892 
L 339.261431 364.681901 
L 340.676786 365.2293 
L 342.20392 365.748958 
L 343.836806 366.238824 
L 345.569 366.696964 
L 347.393665 367.121571 
L 349.3036 367.510968 
L 351.291268 367.863619 
L 353.348824 368.178132 
L 355.468149 368.453266 
L 357.640877 368.687935 
L 359.858435 368.881214 
L 362.11207 369.032338 
L 364.392889 369.140712 
L 366.69189 369.205907 
L 369 369.227668 
L 371.30811 369.205907 
L 373.607111 369.140712 
L 375.88793 369.032338 
L 378.141565 368.881214 
L 380.359123 368.687935 
L 382.531851 368.453266 
L 384.651176 368.178132 
L 386.708732 367.863619 
L 388.6964 367.510968 
L 390.606335 367.121571 
L 392.431 366.696964 
L 394.163194 366.238824 
L 395.79608 365.748958 
L 397.323214 365.2293 
L 398.738569 364.681901 
L 400.03656 364.10892 
L 401.212064 363.51262 
L 402.260441 362.895353 
L 403.177555 362.259555 
L 403.959785 361.607737 
L 404.604045 360.94247 
L 405.107792 360.266379 
L 405.469038 359.582133 
L 405.686358 358.892433 
L 405.758893 358.2 
" style="fill:none;stroke:#000000;stroke-linecap:square;stroke-width:2;"/>
   </g>
   <g id="line2d_2">
    <path clip-path="url(#p1e4bd30780)" d="M 115.363636 611.836364 
L 335.916996 611.836364 
L 335.916996 457.449012 
L 269.750988 391.283004 
L 115.363636 391.283004 
L 115.363636 611.836364 
" style="fill:none;stroke:#000000;stroke-linecap:square;stroke-width:2;"/>
   </g>
   <g id="line2d_3">
    <path clip-path="url(#p1e4bd30780)" d="M 402.083004 611.836364 
L 622.636364 611.836364 
L 622.636364 391.283004 
L 468.249012 391.283004 
L 402.083004 457.449012 
L 402.083004 611.836364 
" style="fill:none;stroke:#000000;stroke-linecap:square;stroke-width:2;"/>
   </g>
   <g id="line2d_4">
    <path clip-path="url(#p1e4bd30780)" d="M 402.083004 258.950988 
L 468.249012 325.116996 
L 622.636364 325.116996 
L 622.636364 104.563636 
L 402.083004 104.563636 
L 402.083004 258.950988 
" style="fill:none;stroke:#000000;stroke-linecap:square;stroke-width:2;"/>
   </g>
   <g id="line2d_5">
    <path clip-path="url(#p1e4bd30780)" d="M 115.363636 325.116996 
L 269.750988 325.116996 
L 335.916996 258.950988 
L 335.916996 104.563636 
L 115.363636 104.563636 
L 115.363636 325.116996 
" style="fill:none;stroke:#000000;stroke-linecap:square;stroke-width:2;"/>
   </g>
   <g id="line2d_6">
    <path clip-path="url(#p1e4bd30780)" d="M 369 418.080237 
L 590.778656 358.2 
L 369 298.319763 
L 147.221344 358.2 
L 369 418.080237 
" style="fill:none;stroke:#008000;stroke-linecap:square;stroke-opacity:0.2;stroke-width:3;"/>
   </g>
   <g id="line2d_7">
    <path clip-path="url(#p1e4bd30780)" d="M 118.49206 358.2 
L 369 412.990519 
L 619.50794 358.2 
L 369 303.409481 
L 118.49206 358.2 
" style="fill:none;stroke:#008000;stroke-linecap:square;stroke-opacity:0.4;stroke-width:3;"/>
   </g>
   <g id="line2d_8">
    <path clip-path="url(#p1e4bd30780)" d="M 115.363636 369.125012 
L 369 405.527427 
L 622.636364 369.125012 
L 622.636364 347.274989 
L 369 310.872572 
L 115.363636 347.274989 
L 115.363636 369.125012 
" style="fill:none;stroke:#008000;stroke-linecap:square;stroke-opacity:0.6;stroke-width:3;"/>
   </g>
   <g id="line2d_9">
    <path clip-path="url(#p1e4bd30780)" d="M 115.363636 381.741524 
L 368.999999 397.416813 
L 622.636364 381.741524 
L 622.636364 334.658476 
L 368.999999 318.983187 
L 115.363636 334.658476 
L 115.363636 381.741524 
" style="fill:none;stroke:#008000;stroke-linecap:square;stroke-opacity:0.8;stroke-width:3;"/>
   </g>
   <g id="line2d_10">
    <path clip-path="url(#p1e4bd30780)" d="M 115.363636 381.979333 
L 369 397.263936 
L 622.636364 381.979333 
L 622.636364 334.420667 
L 369 319.136064 
L 115.363636 334.420668 
L 115.363636 381.979333 
" style="fill:none;stroke:#008000;stroke-linecap:square;stroke-width:3;"/>
   </g>
  </g>
 </g>
 <defs>
  <clipPath id="p1e4bd30780">
   <rect height="543.6" width="558" x="90" y="86.4"/>
  </clipPath>
 </defs>
</svg>
