<?xml version="1.0" encoding="utf-8" standalone="no"?>
<!DOCTYPE svg PUBLIC "-//W3C//DTD SVG 1.1//EN"
  "http://www.w3.org/Graphics/SVG/1.1/DTD/svg11.dtd">
<!-- Created with matplotlib (https://matplotlib.org/) -->
<svg height="720pt" version="1.1" viewBox="0 0 720 720" width="720pt" xmlns="http://www.w3.org/2000/svg" xmlns:xlink="http://www.w3.org/1999/xlink">
 <defs>
  <style type="text/css">
*{stroke-linecap:butt;stroke-linejoin:round;}
  </style>
 </defs>
 <g id="figure_1">
  <g id="patch_1">
   <path d="M 0 720 
L 720 720 
L 720 0 
L 0 0 
z
" style="fill:#ffffff;"/>
  </g>
  <g id="axes_1">
   <g id="patch_2">
    <path clip-path="url(#pae2e48e6d5)" d="M 369 579.978656 
L 428.880237 358.2 
L 369 136.421344 
L 309.119763 358.2 
z
" style="fill:none;opacity:0;"/>
   </g>
   <g id="patch_3">
    <path clip-path="url(#pae2e48e6d5)" d="M 314.209481 358.2 
L 369 608.707938 
L 423.790519 358.2 
L 369 107.692062 
z
" style="fill:none;opacity:0;"/>
   </g>
   <g id="patch_4">
    <path clip-path="url(#pae2e48e6d5)" d="M 321.67263 358.2 
L 358.074899 611.836364 
L 379.9251 611.836364 
L 416.327371 358.2 
L 379.9251 104.563636 
L 358.074899 104.563636 
z
" style="fill:none;opacity:0;"/>
   </g>
   <g id="patch_5">
    <path clip-path="url(#pae2e48e6d5)" d="M 329.783214 358.200001 
L 345.458436 611.836364 
L 392.541564 611.836364 
L 408.216787 358.200001 
L 392.541564 104.563636 
L 345.458435 104.563636 
z
" style="fill:none;opacity:0;"/>
   </g>
   <g id="patch_6">
    <path clip-path="url(#pae2e48e6d5)" d="M 329.936064 358.2 
L 345.220668 611.836364 
L 392.779332 611.836364 
L 408.063936 358.2 
L 392.779332 104.563636 
L 345.220668 104.563636 
z
" style="fill:none;opacity:0;"/>
   </g>
   <g id="patch_7">
    <path clip-path="url(#pae2e48e6d5)" d="M 329.935471 358.2 
L 345.221591 611.836364 
L 392.778409 611.836364 
L 408.064529 358.2 
L 392.778409 104.563636 
L 345.221591 104.563636 
z
" style="fill:none;opacity:0;"/>
   </g>
   <g id="patch_8">
    <path clip-path="url(#pae2e48e6d5)" d="M 329.935471 358.2 
L 345.221591 611.836364 
L 392.778409 611.836364 
L 408.064529 358.2 
L 392.778409 104.563636 
L 345.221591 104.563636 
z
" style="fill:none;opacity:0;"/>
   </g>
   <g id="patch_9">
    <path clip-path="url(#pae2e48e6d5)" d="M 329.935471 358.2 
L 345.221591 611.836364 
L 392.778409 611.836364 
L 408.064529 358.2 
L 392.778409 104.563636 
L 345.221591 104.563636 
z
" style="fill:none;opacity:0;"/>
   </g>
   <g id="patch_10">
    <path clip-path="url(#pae2e48e6d5)" d="M 329.935471 358.2 
L 345.221591 611.836364 
L 392.778409 611.836364 
L 408.064529 358.2 
L 392.778409 104.563636 
L 345.221591 104.563636 
z
" style="fill:none;opacity:0;"/>
   </g>
   <g id="patch_11">
    <path clip-path="url(#pae2e48e6d5)" d="M 329.935471 358.2 
L 345.221591 611.836364 
L 392.778409 611.836364 
L 408.064529 358.2 
L 392.778409 104.563636 
L 345.221591 104.563636 
z
" style="fill:none;opacity:0;"/>
   </g>
   <g id="patch_12">
    <path clip-path="url(#pae2e48e6d5)" d="M 329.935471 358.2 
L 345.221591 611.836364 
L 392.778409 611.836364 
L 408.064529 358.2 
L 392.778409 104.563636 
L 345.221591 104.563636 
z
" style="fill:none;opacity:0;"/>
   </g>
   <g id="patch_13">
    <path clip-path="url(#pae2e48e6d5)" d="M 329.935471 358.2 
L 345.221591 611.836364 
L 392.778409 611.836364 
L 408.064529 358.2 
L 392.778409 104.563636 
L 345.221591 104.563636 
z
" style="fill:none;opacity:0;"/>
   </g>
   <g id="patch_14">
    <path clip-path="url(#pae2e48e6d5)" d="M 329.935471 358.2 
L 345.221591 611.836364 
L 392.778409 611.836364 
L 408.064529 358.2 
L 392.778409 104.563636 
L 345.221591 104.563636 
z
" style="fill:none;opacity:0;"/>
   </g>
   <g id="patch_15">
    <path clip-path="url(#pae2e48e6d5)" d="M 329.935471 358.2 
L 345.221591 611.836364 
L 392.778409 611.836364 
L 408.064529 358.2 
L 392.778409 104.563636 
L 345.221591 104.563636 
z
" style="fill:none;opacity:0;"/>
   </g>
   <g id="patch_16">
    <path clip-path="url(#pae2e48e6d5)" d="M 329.935471 358.2 
L 345.221591 611.836364 
L 392.778409 611.836364 
L 408.064529 358.2 
L 392.778409 104.563636 
L 345.221591 104.563636 
z
" style="fill:none;opacity:0;"/>
   </g>
   <g id="patch_17">
    <path clip-path="url(#pae2e48e6d5)" d="M 115.363636 611.836364 
L 335.916996 611.836364 
L 335.916996 457.449012 
L 269.750988 391.283004 
L 115.363636 391.283004 
z
" style="stroke:#000000;stroke-linejoin:miter;stroke-width:0.5;"/>
   </g>
   <g id="patch_18">
    <path clip-path="url(#pae2e48e6d5)" d="M 402.083004 611.836364 
L 622.636364 611.836364 
L 622.636364 391.283004 
L 468.249012 391.283004 
L 402.083004 457.449012 
z
" style="stroke:#000000;stroke-linejoin:miter;stroke-width:0.5;"/>
   </g>
   <g id="patch_19">
    <path clip-path="url(#pae2e48e6d5)" d="M 402.083004 258.950988 
L 468.249012 325.116996 
L 622.636364 325.116996 
L 622.636364 104.563636 
L 402.083004 104.563636 
z
" style="stroke:#000000;stroke-linejoin:miter;stroke-width:0.5;"/>
   </g>
   <g id="patch_20">
    <path clip-path="url(#pae2e48e6d5)" d="M 115.363636 325.116996 
L 269.750988 325.116996 
L 335.916996 258.950988 
L 335.916996 104.563636 
L 115.363636 104.563636 
z
" style="stroke:#000000;stroke-linejoin:miter;stroke-width:0.5;"/>
   </g>
   <g id="line2d_1">
    <path clip-path="url(#pae2e48e6d5)" d="M 380.027668 358.2 
L 380.005907 355.89189 
L 379.940712 353.592889 
L 379.832338 351.31207 
L 379.681214 349.058435 
L 379.487935 346.840877 
L 379.253266 344.668149 
L 378.978132 342.548824 
L 378.663619 340.491268 
L 378.310968 338.5036 
L 377.921571 336.593665 
L 377.496964 334.769 
L 377.038824 333.036806 
L 376.548958 331.40392 
L 376.0293 329.876786 
L 375.481901 328.461431 
L 374.90892 327.16344 
L 374.31262 325.987936 
L 373.695353 324.939559 
L 373.059555 324.022445 
L 372.407737 323.240215 
L 371.74247 322.595955 
L 371.066379 322.092208 
L 370.382133 321.730962 
L 369.692433 321.513642 
L 369 321.441107 
L 368.307567 321.513642 
L 367.617867 321.730962 
L 366.933621 322.092208 
L 366.25753 322.595955 
L 365.592263 323.240215 
L 364.940445 324.022445 
L 364.304647 324.939559 
L 363.68738 325.987936 
L 363.09108 327.16344 
L 362.518099 328.461431 
L 361.9707 329.876786 
L 361.451042 331.40392 
L 360.961176 333.036806 
L 360.503036 334.769 
L 360.078429 336.593665 
L 359.689032 338.5036 
L 359.336381 340.491268 
L 359.021868 342.548824 
L 358.746734 344.668149 
L 358.512065 346.840877 
L 358.318786 349.058435 
L 358.167662 351.31207 
L 358.059288 353.592889 
L 357.994093 355.89189 
L 357.972332 358.2 
L 357.994093 360.50811 
L 358.059288 362.807111 
L 358.167662 365.08793 
L 358.318786 367.341565 
L 358.512065 369.559123 
L 358.746734 371.731851 
L 359.021868 373.851176 
L 359.336381 375.908732 
L 359.689032 377.8964 
L 360.078429 379.806335 
L 360.503036 381.631 
L 360.961176 383.363194 
L 361.451042 384.99608 
L 361.9707 386.523214 
L 362.518099 387.938569 
L 363.09108 389.23656 
L 363.68738 390.412064 
L 364.304647 391.460441 
L 364.940445 392.377555 
L 365.592263 393.159785 
L 366.25753 393.804045 
L 366.933621 394.307792 
L 367.617867 394.669038 
L 368.307567 394.886358 
L 369 394.958893 
L 369.692433 394.886358 
L 370.382133 394.669038 
L 371.066379 394.307792 
L 371.74247 393.804045 
L 372.407737 393.159785 
L 373.059555 392.377555 
L 373.695353 391.460441 
L 374.31262 390.412064 
L 374.90892 389.23656 
L 375.481901 387.938569 
L 376.0293 386.523214 
L 376.548958 384.99608 
L 377.038824 383.363194 
L 377.496964 381.631 
L 377.921571 379.806335 
L 378.310968 377.8964 
L 378.663619 375.908732 
L 378.978132 373.851176 
L 379.253266 371.731851 
L 379.487935 369.559123 
L 379.681214 367.341565 
L 379.832338 365.08793 
L 379.940712 362.807111 
L 380.005907 360.50811 
L 380.027668 358.2 
" style="fill:none;stroke:#000000;stroke-linecap:square;stroke-width:2;"/>
   </g>
   <g id="line2d_2">
    <path clip-path="url(#pae2e48e6d5)" d="M 115.363636 611.836364 
L 335.916996 611.836364 
L 335.916996 457.449012 
L 269.750988 391.283004 
L 115.363636 391.283004 
L 115.363636 611.836364 
" style="fill:none;stroke:#000000;stroke-linecap:square;stroke-width:3;"/>
   </g>
   <g id="line2d_3">
    <path clip-path="url(#pae2e48e6d5)" d="M 402.083004 611.836364 
L 622.636364 611.836364 
L 622.636364 391.283004 
L 468.249012 391.283004 
L 402.083004 457.449012 
L 402.083004 611.836364 
" style="fill:none;stroke:#000000;stroke-linecap:square;stroke-width:3;"/>
   </g>
   <g id="line2d_4">
    <path clip-path="url(#pae2e48e6d5)" d="M 402.083004 258.950988 
L 468.249012 325.116996 
L 622.636364 325.116996 
L 622.636364 104.563636 
L 402.083004 104.563636 
L 402.083004 258.950988 
" style="fill:none;stroke:#000000;stroke-linecap:square;stroke-width:3;"/>
   </g>
   <g id="line2d_5">
    <path clip-path="url(#pae2e48e6d5)" d="M 115.363636 325.116996 
L 269.750988 325.116996 
L 335.916996 258.950988 
L 335.916996 104.563636 
L 115.363636 104.563636 
L 115.363636 325.116996 
" style="fill:none;stroke:#000000;stroke-linecap:square;stroke-width:3;"/>
   </g>
   <g id="line2d_6">
    <path clip-path="url(#pae2e48e6d5)" d="M 369 579.978656 
L 428.880237 358.2 
L 369 136.421344 
L 309.119763 358.2 
L 369 579.978656 
" style="fill:none;stroke:#0000ff;stroke-linecap:square;stroke-opacity:0.066667;stroke-width:4;"/>
   </g>
   <g id="line2d_7">
    <path clip-path="url(#pae2e48e6d5)" d="M 314.209481 358.2 
L 369 608.707938 
L 423.790519 358.2 
L 369 107.692062 
L 314.209481 358.2 
" style="fill:none;stroke:#0000ff;stroke-linecap:square;stroke-opacity:0.133333;stroke-width:4;"/>
   </g>
   <g id="line2d_8">
    <path clip-path="url(#pae2e48e6d5)" d="M 321.67263 358.2 
L 358.074899 611.836364 
L 379.9251 611.836364 
L 416.327371 358.2 
L 379.9251 104.563636 
L 358.074899 104.563636 
L 321.67263 358.2 
" style="fill:none;stroke:#0000ff;stroke-linecap:square;stroke-opacity:0.2;stroke-width:4;"/>
   </g>
   <g id="line2d_9">
    <path clip-path="url(#pae2e48e6d5)" d="M 329.783214 358.200001 
L 345.458436 611.836364 
L 392.541564 611.836364 
L 408.216787 358.200001 
L 392.541564 104.563636 
L 345.458435 104.563636 
L 329.783214 358.200001 
" style="fill:none;stroke:#0000ff;stroke-linecap:square;stroke-opacity:0.266667;stroke-width:4;"/>
   </g>
   <g id="line2d_10">
    <path clip-path="url(#pae2e48e6d5)" d="M 329.936064 358.2 
L 345.220668 611.836364 
L 392.779332 611.836364 
L 408.063936 358.2 
L 392.779332 104.563636 
L 345.220668 104.563636 
L 329.936064 358.2 
" style="fill:none;stroke:#0000ff;stroke-linecap:square;stroke-opacity:0.333333;stroke-width:4;"/>
   </g>
   <g id="line2d_11">
    <path clip-path="url(#pae2e48e6d5)" d="M 329.935471 358.2 
L 345.221591 611.836364 
L 392.778409 611.836364 
L 408.064529 358.2 
L 392.778409 104.563636 
L 345.221591 104.563636 
L 329.935471 358.2 
" style="fill:none;stroke:#0000ff;stroke-linecap:square;stroke-opacity:0.4;stroke-width:4;"/>
   </g>
   <g id="line2d_12">
    <path clip-path="url(#pae2e48e6d5)" d="M 329.935471 358.2 
L 345.221591 611.836364 
L 392.778409 611.836364 
L 408.064529 358.2 
L 392.778409 104.563636 
L 345.221591 104.563636 
L 329.935471 358.2 
" style="fill:none;stroke:#0000ff;stroke-linecap:square;stroke-opacity:0.466667;stroke-width:4;"/>
   </g>
   <g id="line2d_13">
    <path clip-path="url(#pae2e48e6d5)" d="M 329.935471 358.2 
L 345.221591 611.836364 
L 392.778409 611.836364 
L 408.064529 358.2 
L 392.778409 104.563636 
L 345.221591 104.563636 
L 329.935471 358.2 
" style="fill:none;stroke:#0000ff;stroke-linecap:square;stroke-opacity:0.533333;stroke-width:4;"/>
   </g>
   <g id="line2d_14">
    <path clip-path="url(#pae2e48e6d5)" d="M 329.935471 358.2 
L 345.221591 611.836364 
L 392.778409 611.836364 
L 408.064529 358.2 
L 392.778409 104.563636 
L 345.221591 104.563636 
L 329.935471 358.2 
" style="fill:none;stroke:#0000ff;stroke-linecap:square;stroke-opacity:0.6;stroke-width:4;"/>
   </g>
   <g id="line2d_15">
    <path clip-path="url(#pae2e48e6d5)" d="M 329.935471 358.2 
L 345.221591 611.836364 
L 392.778409 611.836364 
L 408.064529 358.2 
L 392.778409 104.563636 
L 345.221591 104.563636 
L 329.935471 358.2 
" style="fill:none;stroke:#0000ff;stroke-linecap:square;stroke-opacity:0.666667;stroke-width:4;"/>
   </g>
   <g id="line2d_16">
    <path clip-path="url(#pae2e48e6d5)" d="M 329.935471 358.2 
L 345.221591 611.836364 
L 392.778409 611.836364 
L 408.064529 358.2 
L 392.778409 104.563636 
L 345.221591 104.563636 
L 329.935471 358.2 
" style="fill:none;stroke:#0000ff;stroke-linecap:square;stroke-opacity:0.733333;stroke-width:4;"/>
   </g>
   <g id="line2d_17">
    <path clip-path="url(#pae2e48e6d5)" d="M 329.935471 358.2 
L 345.221591 611.836364 
L 392.778409 611.836364 
L 408.064529 358.2 
L 392.778409 104.563636 
L 345.221591 104.563636 
L 329.935471 358.2 
" style="fill:none;stroke:#0000ff;stroke-linecap:square;stroke-opacity:0.8;stroke-width:4;"/>
   </g>
   <g id="line2d_18">
    <path clip-path="url(#pae2e48e6d5)" d="M 329.935471 358.2 
L 345.221591 611.836364 
L 392.778409 611.836364 
L 408.064529 358.2 
L 392.778409 104.563636 
L 345.221591 104.563636 
L 329.935471 358.2 
" style="fill:none;stroke:#0000ff;stroke-linecap:square;stroke-opacity:0.866667;stroke-width:4;"/>
   </g>
   <g id="line2d_19">
    <path clip-path="url(#pae2e48e6d5)" d="M 329.935471 358.2 
L 345.221591 611.836364 
L 392.778409 611.836364 
L 408.064529 358.2 
L 392.778409 104.563636 
L 345.221591 104.563636 
L 329.935471 358.2 
" style="fill:none;stroke:#0000ff;stroke-linecap:square;stroke-opacity:0.933333;stroke-width:4;"/>
   </g>
   <g id="line2d_20">
    <path clip-path="url(#pae2e48e6d5)" d="M 329.935471 358.2 
L 345.221591 611.836364 
L 392.778409 611.836364 
L 408.064529 358.2 
L 392.778409 104.563636 
L 345.221591 104.563636 
L 329.935471 358.2 
" style="fill:none;stroke:#0000ff;stroke-linecap:square;stroke-width:4;"/>
   </g>
  </g>
 </g>
 <defs>
  <clipPath id="pae2e48e6d5">
   <rect height="543.6" width="558" x="90" y="86.4"/>
  </clipPath>
 </defs>
</svg>
